REM DIRINDEX 1\2,1\3,1\4,1\5
REM DIRNAME "folder01","folder02","folder03","folder04","folder05"
TITLE ""
FILE "P1Q_t_0478-0487.mp3" MP3
  TRACK 01 AUDIO
    TITLE "2:cjc173_2361"
    INDEX 01 00:00:00
  TRACK 02 AUDIO
    TITLE "0:"
    INDEX 01 00:01:29
  TRACK 03 AUDIO
    TITLE "3:cjc173_2362"
    INDEX 01 00:01:74
  TRACK 04 AUDIO
    TITLE "0:"
    INDEX 01 00:03:40
  TRACK 05 AUDIO
    TITLE "4:cjc173_2363"
    INDEX 01 00:03:63
  TRACK 06 AUDIO
    TITLE "0:"
    INDEX 01 00:05:15
  TRACK 07 AUDIO
    TITLE "5:cjc173_2364"
    INDEX 01 00:05:37
  TRACK 08 AUDIO
    TITLE "0:"
    INDEX 01 00:11:16
  TRACK 09 AUDIO
    TITLE "3:cjc173_2365"
    INDEX 01 00:11:63
  TRACK 10 AUDIO
    TITLE "0:"
    INDEX 01 00:12:74
  TRACK 11 AUDIO
    TITLE "4:cjc173_2366"
    INDEX 01 00:13:21
  TRACK 12 AUDIO
    TITLE "0:"
    INDEX 01 00:15:65
  TRACK 13 AUDIO
    TITLE "5:cjc173_2367"
    INDEX 01 00:16:11
  TRACK 14 AUDIO
    TITLE "0:"
    INDEX 01 00:21:59
  TRACK 15 AUDIO
    TITLE "3:cjc173_2368"
    INDEX 01 00:22:30
  TRACK 16 AUDIO
    TITLE "0:"
    INDEX 01 00:23:62
  TRACK 17 AUDIO
    TITLE "4:cjc173_2369"
    INDEX 01 00:24:09
  TRACK 18 AUDIO
    TITLE "0:"
    INDEX 01 00:25:26
  TRACK 19 AUDIO
    TITLE "5:cjc173_2370"
    INDEX 01 00:25:49
  TRACK 20 AUDIO
    TITLE "0:"
    INDEX 01 00:29:49
  TRACK 21 AUDIO
    TITLE "3:cjc173_2371"
    INDEX 01 00:30:21
  TRACK 22 AUDIO
    TITLE "0:"
    INDEX 01 00:31:40
  TRACK 23 AUDIO
    TITLE "4:cjc173_2372"
    INDEX 01 00:31:62
  TRACK 24 AUDIO
    TITLE "0:"
    INDEX 01 00:33:10
  TRACK 25 AUDIO
    TITLE "5:cjc173_2373"
    INDEX 01 00:33:29
  TRACK 26 AUDIO
    TITLE "0:"
    INDEX 01 00:38:19
  TRACK 27 AUDIO
    TITLE "3:cjc173_2374"
    INDEX 01 00:38:68
  TRACK 28 AUDIO
    TITLE "0:"
    INDEX 01 00:39:69
  TRACK 29 AUDIO
    TITLE "4:cjc173_2375"
    INDEX 01 00:40:16
  TRACK 30 AUDIO
    TITLE "0:"
    INDEX 01 00:42:42
  TRACK 31 AUDIO
    TITLE "5:cjc173_2376"
    INDEX 01 00:42:64
  TRACK 32 AUDIO
    TITLE "0:"
    INDEX 01 00:47:24
  TRACK 33 AUDIO
    TITLE "3:cjc173_2377"
    INDEX 01 00:47:71
  TRACK 34 AUDIO
    TITLE "0:"
    INDEX 01 00:48:74
  TRACK 35 AUDIO
    TITLE "4:cjc173_2378"
    INDEX 01 00:49:21
  TRACK 36 AUDIO
    TITLE "0:"
    INDEX 01 00:50:47
  TRACK 37 AUDIO
    TITLE "5:cjc173_2379"
    INDEX 01 00:50:67
  TRACK 38 AUDIO
    TITLE "0:"
    INDEX 01 00:54:45
  TRACK 39 AUDIO
    TITLE "3:cjc173_2380"
    INDEX 01 00:55:17
  TRACK 40 AUDIO
    TITLE "0:"
    INDEX 01 00:56:25
  TRACK 41 AUDIO
    TITLE "4:cjc173_2381"
    INDEX 01 00:56:48
  TRACK 42 AUDIO
    TITLE "0:"
    INDEX 01 00:59:31
  TRACK 43 AUDIO
    TITLE "5:cjc173_2382"
    INDEX 01 00:59:50
  TRACK 44 AUDIO
    TITLE "0:"
    INDEX 01 01:04:51
  TRACK 45 AUDIO
    TITLE "3:cjc173_2383"
    INDEX 01 01:05:23
  TRACK 46 AUDIO
    TITLE "0:"
    INDEX 01 01:06:52
  TRACK 47 AUDIO
    TITLE "4:cjc173_2384"
    INDEX 01 01:06:72
  TRACK 48 AUDIO
    TITLE "0:"
    INDEX 01 01:08:36
  TRACK 49 AUDIO
    TITLE "5:cjc173_2385"
    INDEX 01 01:08:57
  TRACK 50 AUDIO
    TITLE "0:"
    INDEX 01 01:13:64
  TRACK 51 AUDIO
    TITLE "3:cjc173_2386"
    INDEX 01 01:14:36
  TRACK 52 AUDIO
    TITLE "0:"
    INDEX 01 01:16:06
  TRACK 53 AUDIO
    TITLE "4:cjc173_2387"
    INDEX 01 01:16:27
  TRACK 54 AUDIO
    TITLE "0:"
    INDEX 01 01:19:16
  TRACK 55 AUDIO
    TITLE "5:cjc173_2388"
    INDEX 01 01:19:35
  TRACK 56 AUDIO
    TITLE "0:"
    INDEX 01 01:23:66
  TRACK 57 AUDIO
    TITLE "3:cjc173_2389"
    INDEX 01 01:24:38
  TRACK 58 AUDIO
    TITLE "0:"
    INDEX 01 01:25:61
  TRACK 59 AUDIO
    TITLE "4:cjc173_2390"
    INDEX 01 01:26:08
  TRACK 60 AUDIO
    TITLE "0:"
    INDEX 01 01:27:17
  TRACK 61 AUDIO
    TITLE "5:cjc173_2391"
    INDEX 01 01:27:37
  TRACK 62 AUDIO
    TITLE "0:"
    INDEX 01 01:31:17
